<svg width="36" height="39" viewBox="0 0 36 39" fill="none" xmlns="http://www.w3.org/2000/svg">
<path d="M25.1666 36.6673V30.2173C25.2291 29.4226 25.1217 28.6237 24.8516 27.8737C24.5815 27.1236 24.1548 26.4397 23.5999 25.8673C28.8333 25.284 34.3333 23.3007 34.3333 14.2007C34.3328 11.8737 33.4377 9.636 31.8333 7.95067C32.593 5.91485 32.5393 3.66458 31.6833 1.66734C31.6833 1.66734 29.7166 1.084 25.1666 4.134C21.3466 3.09871 17.3199 3.09871 13.4999 4.134C8.94992 1.084 6.98325 1.66734 6.98325 1.66734C6.12721 3.66458 6.07349 5.91485 6.83325 7.95067C5.2168 9.6485 4.32079 11.9064 4.33325 14.2507C4.33325 23.284 9.83325 25.2673 15.0666 25.9173C14.5182 26.484 14.0954 27.1597 13.8254 27.9005C13.5555 28.6414 13.4446 29.4308 13.4999 30.2173V36.6673M13.4999 31.6673C5.16659 34.1673 5.16659 27.5007 1.83325 26.6673L13.4999 31.6673Z" stroke="#FFB800" stroke-width="2.8" stroke-linecap="round" stroke-linejoin="round"/>
</svg>
