<svg width="553" height="384" viewBox="0 0 553 384" fill="none" xmlns="http://www.w3.org/2000/svg">
<g clip-path="url(#clip0_1:8)">
<path d="M524.8 384H17.0259C12.5104 384 8.17976 382.202 4.98678 379.003C1.7938 375.803 0 371.463 0 366.938C184.068 345.5 364.676 345.5 541.826 366.938C541.826 371.463 540.032 375.803 536.839 379.003C533.646 382.202 529.315 384 524.8 384Z" fill="#2F2E41"/>
<path d="M541.826 367.941L0 366.937L62.7957 261.052L63.0962 260.55V27.1893C63.0959 24.3568 63.6525 21.552 64.734 18.9351C65.8155 16.3182 67.4009 13.9404 69.3995 11.9375C71.3981 9.93462 73.7709 8.34589 76.3822 7.26205C78.9936 6.17821 81.7924 5.62049 84.6189 5.62073H454.202C457.029 5.62049 459.827 6.17822 462.439 7.26206C465.05 8.3459 467.423 9.93463 469.422 11.9375C471.42 13.9404 473.005 16.3182 474.087 18.9351C475.169 21.552 475.725 24.3568 475.725 27.1893V262.156L541.826 367.941Z" fill="#3F3D56"/>
<path d="M84.1281 20.6755C82.2694 20.6776 80.4874 21.4185 79.1731 22.7356C77.8588 24.0527 77.1195 25.8385 77.1174 27.7011V240.477C77.1196 242.339 77.8589 244.125 79.1732 245.442C80.4875 246.759 82.2694 247.5 84.1281 247.502H457.697C459.556 247.5 461.338 246.759 462.652 245.442C463.966 244.125 464.706 242.339 464.708 240.477V27.7011C464.706 25.8385 463.967 24.0528 462.652 22.7357C461.338 21.4186 459.556 20.6777 457.697 20.6755H84.1281Z" fill="white"/>
<path d="M86.5834 275.605C86.0091 275.606 85.4469 275.772 84.9633 276.082C84.4797 276.393 84.0947 276.835 83.8537 277.358L64.5044 319.511C64.2937 319.97 64.2016 320.474 64.2364 320.978C64.2713 321.482 64.432 321.969 64.7038 322.394C64.9757 322.819 65.3498 323.169 65.7919 323.411C66.234 323.654 66.7297 323.781 67.2336 323.781H474.139C474.651 323.781 475.155 323.65 475.602 323.4C476.05 323.15 476.426 322.789 476.695 322.353C476.964 321.916 477.118 321.418 477.14 320.905C477.163 320.392 477.055 319.882 476.826 319.423L455.794 277.27C455.546 276.768 455.163 276.347 454.688 276.053C454.213 275.759 453.665 275.604 453.107 275.605L86.5834 275.605Z" fill="#2F2E41"/>
<path d="M269.411 17.1627C271.9 17.1627 273.917 15.1406 273.917 12.6462C273.917 10.1518 271.9 8.12976 269.411 8.12976C266.921 8.12976 264.904 10.1518 264.904 12.6462C264.904 15.1406 266.921 17.1627 269.411 17.1627Z" fill="white"/>
<path d="M229.415 331.81C228.754 331.811 228.113 332.03 227.588 332.432C227.064 332.835 226.687 333.399 226.514 334.038L221.661 352.104C221.541 352.55 221.525 353.018 221.614 353.471C221.704 353.925 221.896 354.351 222.177 354.718C222.457 355.085 222.818 355.382 223.232 355.587C223.645 355.792 224.1 355.898 224.561 355.898H316.866C317.345 355.898 317.817 355.783 318.242 355.563C318.668 355.343 319.035 355.024 319.313 354.633C319.591 354.242 319.771 353.79 319.839 353.315C319.907 352.84 319.861 352.355 319.704 351.902L313.464 333.836C313.259 333.245 312.876 332.732 312.367 332.369C311.858 332.006 311.249 331.81 310.625 331.81L229.415 331.81Z" fill="#2F2E41"/>
<path d="M475.725 257.037V261.052H62.7954L63.1065 260.55V257.037H475.725Z" fill="#2F2E41"/>
<path d="M347.346 58.2689H249.919V60.0522H347.346C352.143 60.0522 356.743 61.9617 360.135 65.3607C363.527 68.7596 365.432 73.3696 365.432 78.1764C365.432 82.9832 363.527 87.5932 360.135 90.9921C356.743 94.391 352.143 96.3005 347.346 96.3005H199.923C195.126 96.3005 190.526 94.391 187.134 90.9921C183.742 87.5932 181.837 82.9832 181.837 78.1764C181.837 73.3696 183.742 68.7596 187.134 65.3607C190.526 61.9617 195.126 60.0522 199.923 60.0522H205.432V58.2689H199.923C194.656 58.272 189.606 60.3708 185.883 64.1038C182.16 67.8368 180.069 72.8986 180.069 78.1764C180.069 83.4541 182.16 88.5159 185.883 92.2489C189.606 95.982 194.656 98.0807 199.923 98.0838H347.346C349.956 98.0854 352.54 97.5716 354.952 96.5718C357.363 95.5721 359.555 94.1059 361.401 92.2572C363.247 90.4085 364.711 88.2134 365.71 85.7973C366.709 83.3813 367.223 80.7916 367.223 78.1764C367.223 75.5611 366.709 72.9715 365.71 70.5554C364.711 68.1394 363.247 65.9443 361.401 64.0956C359.555 62.2468 357.363 60.7807 354.952 59.7809C352.54 58.7812 349.956 58.2674 347.346 58.2689Z" fill="#E6E6E6"/>
<path d="M347.346 119.793H249.919V121.576H347.346C352.141 121.579 356.738 123.49 360.128 126.888C363.517 130.287 365.421 134.895 365.421 139.7C365.421 144.505 363.517 149.113 360.128 152.512C356.738 155.91 352.141 157.821 347.346 157.824H199.923C195.126 157.824 190.526 155.915 187.134 152.516C183.742 149.117 181.837 144.507 181.837 139.7C181.837 134.893 183.742 130.283 187.134 126.884C190.526 123.485 195.126 121.576 199.923 121.576H205.432V119.793H199.923C194.656 119.796 189.606 121.894 185.883 125.627C182.16 129.361 180.069 134.422 180.069 139.7C180.069 144.978 182.16 150.04 185.883 153.773C189.606 157.506 194.656 159.604 199.923 159.608H347.346C349.956 159.609 352.54 159.095 354.952 158.096C357.363 157.096 359.555 155.63 361.401 153.781C363.247 151.932 364.711 149.737 365.71 147.321C366.709 144.905 367.223 142.315 367.223 139.7C367.223 137.085 366.709 134.495 365.71 132.079C364.711 129.663 363.247 127.468 361.401 125.619C359.555 123.771 357.363 122.304 354.952 121.305C352.54 120.305 349.956 119.791 347.346 119.793Z" fill="#E6E6E6"/>
<path d="M347.346 181.316H249.919V183.099H347.346C352.143 183.099 356.743 185.008 360.135 188.407C363.526 191.806 365.432 196.416 365.432 201.223C365.432 206.03 363.526 210.64 360.135 214.039C356.743 217.438 352.143 219.347 347.346 219.347H199.923C195.126 219.347 190.526 217.438 187.134 214.039C183.742 210.64 181.837 206.03 181.837 201.223C181.837 196.416 183.742 191.806 187.134 188.407C190.526 185.008 195.126 183.099 199.923 183.099H205.432V181.316H199.923C194.654 181.316 189.601 183.413 185.876 187.146C182.15 190.88 180.057 195.943 180.057 201.223C180.057 206.503 182.15 211.566 185.876 215.3C189.601 219.033 194.654 221.13 199.923 221.13H347.346C349.955 221.13 352.538 220.616 354.948 219.615C357.359 218.615 359.548 217.148 361.393 215.3C363.238 213.451 364.701 211.257 365.699 208.841C366.698 206.426 367.211 203.837 367.211 201.223C367.211 198.609 366.698 196.02 365.699 193.605C364.701 191.189 363.238 188.995 361.393 187.146C359.548 185.298 357.359 183.831 354.948 182.831C352.538 181.83 349.955 181.316 347.346 181.316Z" fill="#E6E6E6"/>
<path d="M216.429 53.5573C215.04 53.5798 213.717 54.1484 212.743 55.1402C211.769 56.132 211.223 57.4676 211.223 58.859C211.223 60.2504 211.769 61.586 212.743 62.5778C213.717 63.5697 215.04 64.1382 216.429 64.1608H239.638C240.333 64.1722 241.023 64.0464 241.67 63.7905C242.316 63.5346 242.906 63.1537 243.405 62.6695C243.904 62.1852 244.303 61.6072 244.58 60.9683C244.856 60.3295 245.004 59.6423 245.016 58.9461C245.027 58.2498 244.902 57.5581 244.646 56.9105C244.391 56.2629 244.011 55.6721 243.528 55.1717C243.044 54.6713 242.468 54.2711 241.83 53.9941C241.193 53.7171 240.507 53.5687 239.812 53.5573C239.754 53.5563 239.696 53.5563 239.638 53.5573H216.429Z" fill="#3F3D56"/>
<path d="M216.429 115.973C215.04 115.995 213.717 116.564 212.743 117.556C211.769 118.548 211.223 119.883 211.223 121.275C211.223 122.666 211.769 124.002 212.743 124.993C213.717 125.985 215.04 126.554 216.429 126.576H239.638C241.042 126.599 242.396 126.063 243.405 125.085C244.413 124.107 244.993 122.768 245.016 121.362C245.039 119.955 244.504 118.598 243.528 117.587C242.552 116.577 241.215 115.996 239.812 115.973C239.754 115.972 239.696 115.972 239.638 115.973H216.429Z" fill="#3F3D56"/>
<path d="M216.429 176.605C215.041 176.627 213.717 177.196 212.743 178.188C211.77 179.18 211.224 180.515 211.224 181.906C211.224 183.298 211.77 184.633 212.743 185.625C213.717 186.617 215.041 187.186 216.429 187.208H239.639C241.042 187.231 242.396 186.695 243.405 185.717C244.413 184.739 244.993 183.4 245.016 181.994C245.039 180.587 244.504 179.23 243.528 178.219C242.552 177.209 241.215 176.628 239.812 176.605C239.754 176.604 239.696 176.604 239.639 176.605H216.429Z" fill="#3F3D56"/>
<path d="M207.223 72.8745C205.835 72.8971 204.511 73.4656 203.537 74.4574C202.563 75.4492 202.018 76.7849 202.018 78.1763C202.018 79.5677 202.563 80.9033 203.537 81.8951C204.511 82.8869 205.835 83.4554 207.223 83.478H339.872C340.567 83.4895 341.257 83.3636 341.903 83.1078C342.55 82.8519 343.139 82.471 343.639 81.9867C344.138 81.5025 344.537 80.9245 344.814 80.2856C345.09 79.6467 345.238 78.9595 345.25 78.2633C345.261 77.5671 345.135 76.8754 344.88 76.2278C344.625 75.5802 344.245 74.9893 343.761 74.4889C343.278 73.9885 342.701 73.5884 342.064 73.3114C341.426 73.0344 340.741 72.8859 340.046 72.8745C339.988 72.8735 339.93 72.8735 339.872 72.8745H207.223Z" fill="#70D1ED"/>
<path d="M207.223 134.398C205.835 134.421 204.511 134.99 203.537 135.981C202.564 136.973 202.018 138.309 202.018 139.7C202.018 141.091 202.564 142.427 203.537 143.419C204.511 144.411 205.835 144.979 207.223 145.002H339.872C340.567 145.013 341.257 144.888 341.903 144.632C342.55 144.376 343.139 143.995 343.639 143.511C344.138 143.026 344.537 142.448 344.814 141.809C345.09 141.171 345.238 140.483 345.25 139.787C345.261 139.091 345.135 138.399 344.88 137.752C344.625 137.104 344.245 136.513 343.761 136.013C343.278 135.512 342.701 135.112 342.064 134.835C341.426 134.558 340.741 134.41 340.046 134.398C339.988 134.397 339.93 134.397 339.872 134.398H207.223Z" fill="#70D1ED"/>
<path d="M207.223 195.922C205.835 195.945 204.511 196.513 203.537 197.505C202.564 198.497 202.018 199.833 202.018 201.224C202.018 202.615 202.564 203.951 203.537 204.943C204.511 205.934 205.835 206.503 207.223 206.526H339.872C340.567 206.537 341.257 206.411 341.903 206.155C342.55 205.899 343.139 205.519 343.639 205.034C344.138 204.55 344.537 203.972 344.814 203.333C345.09 202.694 345.238 202.007 345.25 201.311C345.261 200.615 345.135 199.923 344.88 199.275C344.625 198.628 344.245 198.037 343.761 197.537C343.278 197.036 342.701 196.636 342.064 196.359C341.426 196.082 340.741 195.934 340.046 195.922C339.988 195.921 339.93 195.921 339.872 195.922H207.223Z" fill="#E6E6E6"/>
<path d="M157.955 88.3761C163.807 88.3761 168.55 83.6225 168.55 77.7587C168.55 71.8949 163.807 67.1414 157.955 67.1414C152.104 67.1414 147.361 71.8949 147.361 77.7587C147.361 83.6225 152.104 88.3761 157.955 88.3761Z" fill="#FFB800"/>
<path d="M156.973 82.1206L153.886 78.1436L155.681 76.7445L157.143 78.6274L162.08 73.4048L163.731 74.9725L156.973 82.1206Z" fill="white"/>
<path d="M157.955 149.9C163.807 149.9 168.55 145.146 168.55 139.282C168.55 133.419 163.807 128.665 157.955 128.665C152.104 128.665 147.361 133.419 147.361 139.282C147.361 145.146 152.104 149.9 157.955 149.9Z" fill="#FFB800"/>
<path d="M156.973 143.644L153.886 139.667L155.681 138.268L157.143 140.151L162.08 134.929L163.731 136.496L156.973 143.644Z" fill="white"/>
<path d="M157.955 211.424C163.807 211.424 168.55 206.67 168.55 200.806C168.55 194.942 163.807 190.189 157.955 190.189C152.104 190.189 147.361 194.942 147.361 200.806C147.361 206.67 152.104 211.424 157.955 211.424Z" fill="#E6E6E6"/>
<path d="M390.181 88.3761C396.032 88.3761 400.775 83.6225 400.775 77.7587C400.775 71.8949 396.032 67.1414 390.181 67.1414C384.329 67.1414 379.586 71.8949 379.586 77.7587C379.586 83.6225 384.329 88.3761 390.181 88.3761Z" fill="#E6E6E6"/>
<path d="M390.181 149.9C396.032 149.9 400.775 145.146 400.775 139.282C400.775 133.419 396.032 128.665 390.181 128.665C384.329 128.665 379.586 133.419 379.586 139.282C379.586 145.146 384.329 149.9 390.181 149.9Z" fill="#E6E6E6"/>
<path d="M390.181 211.424C396.032 211.424 400.775 206.67 400.775 200.806C400.775 194.942 396.032 190.189 390.181 190.189C384.329 190.189 379.586 194.942 379.586 200.806C379.586 206.67 384.329 211.424 390.181 211.424Z" fill="#E6E6E6"/>
<path d="M156.973 205.168L153.886 201.191L155.681 199.792L157.143 201.675L162.08 196.452L163.731 198.019L156.973 205.168Z" fill="white"/>
<path d="M387.503 74.3479L386.622 75.2316L392.546 81.1686L393.428 80.2848L387.503 74.3479Z" fill="white"/>
<path d="M392.858 74.3481L386.933 80.285L387.815 81.1687L393.74 75.2318L392.858 74.3481Z" fill="white"/>
<path d="M387.503 135.872L386.622 136.755L392.546 142.692L393.428 141.809L387.503 135.872Z" fill="white"/>
<path d="M392.858 135.872L386.933 141.809L387.815 142.693L393.74 136.756L392.858 135.872Z" fill="white"/>
<path d="M387.503 197.395L386.622 198.279L392.546 204.216L393.428 203.332L387.503 197.395Z" fill="white"/>
<path d="M392.858 197.396L386.933 203.333L387.815 204.216L393.74 198.279L392.858 197.396Z" fill="white"/>
<path d="M159.994 196.552C160.917 195.941 161.696 195.136 162.278 194.193C162.86 193.25 163.232 192.192 163.366 191.091C163.501 189.991 163.396 188.874 163.058 187.818C162.72 186.762 162.158 185.792 161.41 184.975L151.239 173.865L141.47 178.822L148.947 193.621C149.435 194.586 150.121 195.437 150.959 196.117C151.798 196.798 152.771 197.293 153.815 197.57C154.858 197.846 155.948 197.899 157.013 197.724C158.078 197.548 159.094 197.149 159.994 196.552Z" fill="#FFB8B8"/>
<path d="M28.5165 229.548C29.6155 229.42 30.6737 229.055 31.6182 228.477C32.5626 227.9 33.3708 227.124 33.987 226.203C34.6032 225.282 35.0127 224.238 35.1874 223.143C35.3621 222.048 35.2976 220.928 34.9986 219.861L30.9325 205.345H19.9824V221.933C19.9824 223.014 20.2108 224.084 20.6524 225.071C21.0941 226.057 21.7392 226.939 22.5452 227.659C23.3512 228.378 24.2999 228.918 25.3291 229.244C26.3582 229.569 27.4445 229.673 28.5165 229.548Z" fill="#FFB8B8"/>
<path d="M91.7664 339.059L112.45 335.807L103.934 326.865H91.7664V339.059Z" fill="#FFB8B8"/>
<path d="M25.2549 339.871L46.7495 345.561C42.7906 337.331 40.3527 330.049 41.8828 325.24L31.7438 324.021L25.2549 339.871Z" fill="#FFB8B8"/>
<path d="M29.7158 326.052L42.2886 328.491L76.7611 217.131L91.3611 328.085H104.745L103.528 171.206H51.6162L29.7158 326.052Z" fill="#575A88"/>
<path d="M95.7263 343.993L116.186 337.249C116.729 337.07 117.227 336.776 117.646 336.387C118.065 335.998 118.396 335.523 118.616 334.994C118.835 334.465 118.939 333.896 118.919 333.323C118.899 332.751 118.757 332.19 118.501 331.678C118.15 330.974 117.6 330.391 116.919 330C116.238 329.61 115.457 329.429 114.674 329.482L110.033 329.797L108.214 328.771C108.023 328.663 107.802 328.617 107.584 328.641C107.365 328.664 107.159 328.755 106.994 328.901C106.83 329.047 106.715 329.241 106.665 329.455C106.615 329.67 106.633 329.895 106.717 330.099L108.394 334.181L91.361 332.961L90.5205 339.699C90.4371 340.368 90.5239 341.047 90.7727 341.674C91.0216 342.3 91.4245 342.853 91.944 343.282C92.4635 343.71 93.0827 344 93.744 344.125C94.4053 344.249 95.0872 344.204 95.7263 343.993Z" fill="#575A88"/>
<path d="M26.5761 347.094L48.8162 348.539C49.4062 348.577 49.9976 348.488 50.55 348.277C51.1025 348.065 51.6031 347.737 52.0177 347.315C52.4324 346.893 52.7514 346.386 52.9531 345.829C53.1547 345.272 53.2343 344.678 53.1864 344.087C53.1207 343.276 52.8171 342.503 52.314 341.864C51.8108 341.226 51.1305 340.75 50.3586 340.498L45.7822 339.004L44.4316 337.315C44.2893 337.137 44.0952 337.008 43.8764 336.946C43.6575 336.883 43.4247 336.891 43.2103 336.967C42.996 337.044 42.8107 337.185 42.6803 337.372C42.5499 337.559 42.4808 337.782 42.4826 338.01L42.5194 342.578L26.6376 334.814L23.2338 340.956C22.8958 341.566 22.7172 342.252 22.7146 342.95C22.7121 343.648 22.8856 344.335 23.2192 344.947C23.5527 345.56 24.0354 346.077 24.6223 346.453C25.2092 346.828 25.8813 347.049 26.5761 347.094Z" fill="#575A88"/>
<path d="M73.922 83.4183C82.2094 83.4183 88.9277 76.6857 88.9277 68.3807C88.9277 60.0756 82.2094 53.343 73.922 53.343C65.6345 53.343 58.9163 60.0756 58.9163 68.3807C58.9163 76.6857 65.6345 83.4183 73.922 83.4183Z" fill="#FFB8B8"/>
<path d="M64.1885 96.0168H84.872V76.1021H64.1885C65.8977 82.2524 65.6768 88.9537 64.1885 96.0168Z" fill="#FFB8B8"/>
<path d="M48.7771 173.238L105.555 174.051L111.233 113.938C111.233 110.016 110.008 106.193 107.728 103.005C105.449 99.8166 102.23 97.424 98.5247 96.1628L89.7386 93.1724L84.8719 87.4825C78.7274 86.1519 72.042 86.4744 64.9995 87.8889L59.7272 95.611L54.0497 97.4268C50.1914 98.6608 46.838 101.118 44.4951 104.429C42.1521 107.739 40.9466 111.724 41.0603 115.781C45.285 137.648 48.5701 157.972 48.7771 173.238Z" fill="#70D1ED"/>
<path d="M17.9546 205.345L32.1492 206.971L48.3716 141.536L49.9938 99.2684L49.5149 99.5007C45.7601 101.321 42.4799 103.993 39.9343 107.305C37.3886 110.616 35.6474 114.476 34.8486 118.579L17.9546 205.345Z" fill="#70D1ED"/>
<path d="M142.056 180.96L153.006 175.676L120.888 115.617C116.224 106.895 108.641 100.099 99.4722 96.4238L105.556 134.628L142.056 180.96Z" fill="#70D1ED"/>
<path d="M64.6474 81.915C64.6474 81.915 79.3618 81.0404 79.6804 78.4899C79.9989 75.9393 82.1472 70.1211 84.6924 70.4403C87.2375 70.7595 94.2911 62.2569 92.7804 58.8293C91.2698 55.4017 84.1399 42.7822 69.5837 48.5985C55.0276 54.4149 56.6957 69.0013 58.2064 72.4289C59.717 75.8565 64.6474 81.915 64.6474 81.915Z" fill="#2F2E41"/>
<path d="M424.757 266.234C424.596 266.234 424.44 266.288 424.312 266.386C424.184 266.484 424.092 266.621 424.05 266.777L422.868 271.176C422.839 271.285 422.835 271.399 422.857 271.509C422.879 271.619 422.926 271.723 422.994 271.813C423.062 271.902 423.15 271.974 423.251 272.024C423.352 272.074 423.462 272.1 423.575 272.1H446.052C446.169 272.1 446.284 272.072 446.387 272.018C446.491 271.965 446.58 271.887 446.648 271.792C446.716 271.697 446.76 271.587 446.776 271.471C446.793 271.355 446.782 271.237 446.743 271.127L445.224 266.727C445.174 266.583 445.081 266.459 444.957 266.37C444.833 266.282 444.685 266.234 444.532 266.234H424.757Z" fill="#70D1ED"/>
<path d="M391.937 266.234C391.776 266.234 391.62 266.288 391.492 266.386C391.364 266.484 391.273 266.621 391.231 266.777L390.049 271.176C390.019 271.285 390.016 271.399 390.037 271.509C390.059 271.619 390.106 271.723 390.174 271.813C390.243 271.902 390.331 271.974 390.431 272.024C390.532 272.074 390.643 272.1 390.755 272.1H413.232C413.349 272.1 413.464 272.072 413.568 272.018C413.671 271.965 413.761 271.887 413.828 271.792C413.896 271.697 413.94 271.587 413.957 271.471C413.973 271.355 413.962 271.237 413.924 271.127L412.404 266.727C412.354 266.583 412.261 266.459 412.137 266.37C412.013 266.282 411.865 266.234 411.713 266.234H391.937Z" fill="#70D1ED"/>
</g>
<defs>
<clipPath id="clip0_1:8">
<rect width="553" height="384" fill="white"/>
</clipPath>
</defs>
</svg>
